Coordinates
version=1
nRows=7
nColumns=33
inDegrees=yes

Units are S.I. units (second, meters, Newtons, ...)
Angles are in degrees.

endheader
time	ground_thorax_rot_x	ground_thorax_rot_y	ground_thorax_rot_z	ground_thorax_tx	ground_thorax_ty	ground_thorax_tz	clav_prot_r	clav_elev_r	scapula_abduction_r	scapula_elevation_r	scapula_upward_rot_r	scapula_winging_r	shoulder_elv_r	plane_of_elev_r	axial_rot_r	elbow_flexion_r	pro_sup_r	wrist_flex_r	wrist_dev_r	clav_prot_l	clav_elev_l	scapula_abduction_l	scapula_elevation_l	scapula_upward_rot_l	scapula_winging_l	shoulder_elv_l	plane_of_elev_l	axial_rot_l	elbow_flexion_l	pro_sup_l	wrist_flex_l	wrist_dev_l
      0.58000000	      2.83259447	     -1.70100696	      2.16898001	     -0.16560729	      0.98995168	      0.00358582	     -6.30798219	      3.04189697	     -5.82333770	      6.79860786	      8.07002255	     -2.46831019	     47.52539563	    -41.01638635	     50.57189342	     76.35720731	    -13.05085756	     27.36975240	    -10.54783723	     -9.67017665	      0.99519589	     13.55238994	     -6.60749102	      0.55650189	     -1.25237337	     38.83105562	    -45.49027843	    -15.92568473	     78.23286828	     13.71719272	     -2.75067306	    -21.97716536
      0.59000000	      2.82045321	     -1.80179828	      2.20504757	     -0.16542404	      0.98963577	      0.00397138	     -6.32082917	      2.93146822	     -5.86667324	      6.73898907	      7.96355399	     -2.42516426	     47.39755567	    -40.97808826	     50.52039899	     76.24728015	    -12.98080508	     27.40127799	    -10.56503330	     -9.67374269	      0.88285851	     13.55968478	     -6.53817942	      0.46821103	     -1.28725813	     38.86423621	    -45.66399293	    -15.87995005	     77.54760164	     13.77348202	     -2.73178810	    -21.91647611
      0.60000000	      2.83498602	     -1.83628038	      2.26162630	     -0.16533560	      0.98973011	      0.00424795	     -6.32945173	      2.76967785	     -5.90767775	      6.65039868	      7.81104497	     -2.36760462	     47.30222978	    -40.94634588	     50.41860007	     75.96681867	    -12.86259667	     27.47285492	    -10.63215304	     -9.68654453	      0.65335342	     13.55063000	     -6.36929218	      0.35553503	     -1.33852064	     38.87822296	    -45.73016464	    -15.81284018	     76.65401430	     13.88646102	     -2.74865128	    -21.88719032
      0.61000000	      3.07959092	     -1.78704357	      2.16516766	     -0.16508897	      0.98981952	      0.00445110	     -6.18704487	      2.70984912	     -6.09604173	      6.92379406	      6.97242847	     -2.13209842	     47.63984346	    -40.40932696	     49.53012546	     75.40483804	    -10.09952381	     29.94708347	    -12.05152625	     -9.63361963	      0.08387569	     13.42468773	     -5.98789542	     -0.00965170	     -1.47668898	     38.85019099	    -45.68604549	    -15.40853102	     75.39012788	     15.43899751	     -4.04693481	    -24.67502739
      0.62000000	      3.07739214	     -1.80812688	      2.19051589	     -0.16497951	      0.98970164	      0.00468373	     -6.19496058	      2.53735305	     -6.10330021	      6.80602432	      6.86943339	     -2.09177115	     47.55171775	    -40.37501390	     49.46158423	     75.26913219	    -10.02926703	     29.96144659	    -12.15713148	     -9.61942636	     -0.10376201	     13.37806095	     -5.85204118	     -0.10525116	     -1.51674501	     38.85045497	    -45.61039039	    -15.37149626	     74.55590700	     15.51480348	     -4.04124137	    -24.61182076
      0.63000000	      3.09478481	     -1.82035206	      2.18229371	     -0.16484823	      0.98961015	      0.00483630	     -6.22238707	      2.35016105	     -6.14560750	      6.67724326	      6.75960881	     -2.04045372	     47.50165909	    -40.34364192	     49.29342885	     75.21636215	     -9.92076550	     30.07136099	    -12.34599617	     -9.60790087	     -0.33730006	     13.33150882	     -5.68269710	     -0.22348543	     -1.56768564	     38.85220994	    -45.44819415	    -15.33220507	     73.72969021	     15.59827349	     -4.08163879	    -24.62487020
      0.64000000	      3.17273014	     -1.78855999	      2.03512570	     -0.16454428	      0.98935568	      0.00506108	     -6.27299015	      2.11355887	     -6.25864877	      6.53529492	      6.56617511	     -1.95270411	     47.60145114	    -40.31555372	     48.89682477	     75.28904556	     -9.56521738	     30.50616250	    -12.93146020	     -9.57339773	     -0.59632505	     13.29038017	     -5.53695835	     -0.45930808	     -1.65551773	     38.87384664	    -45.08123972	    -15.29002849	     72.94725824	     15.69142274	     -4.33057966	    -24.99999983
